<?xml version="1.0" encoding="utf-8"?>
<?xml-stylesheet type="text/xsl" href="rss1.xsl"?>
<rss version="2.0" xmlns:atom="http://www.w3.org/2005/Atom" xmlns:content="http://purl.org/rss/1.0/modules/content/" xmlns:dc="http://purl.org/dc/elements/1.1/" xmlns:media="http://search.yahoo.com/mrss/">
<channel>
 <title>Getty</title>
 <link>http://www.gettyimg.com/</link>
 <atom:link href="http://www.gettyimg.com/" rel="self" type="application/rss+xml" />

 
                <item>
                <title><![CDATA[【HD Live Performances】Pablo Lopez 360 Maestranza]]></title>
                <link><![CDATA[https://sharemania.us/threads/pablo-lopez-360-maestranza.234755/]]></link>
                <description><![CDATA[<article>
<blockquote class="messageText SelectQuoteContainer ugc baseHtml">
Hola alguien tiene el concierto Pablo Lopez 360 Maestranza Sevilla DVD porfavor
<div class="messageTextEndMarker">&nbsp;</div>
</blockquote>
</article>]]></description>
                <author><![CDATA[Promt]]></author>
                </item>

                
                <item>
                <title><![CDATA[【Requests】[REQ AUD] - Republik - Punya Arti (2006)]]></title>
                <link><![CDATA[https://sharemania.us/threads/republik-punya-arti-2006.234757/]]></link>
                <description><![CDATA[<article>
<blockquote class="messageText SelectQuoteContainer ugc baseHtml">
Hi everything, I need this album in lossless<br>
<a href="https://www.qobuz.com/no-en/album/punya-arti-republik/kjiukj51zmreb" target="_blank" class="externalLink" rel="nofollow">https://www.qobuz.com/no-en/album/punya-arti-republik/kjiukj51zmreb</a><br>
<img src="https://static.qobuz.com/images/covers/eb/mr/kjiukj51zmreb_600.jpg" class="bbCodeImage LbImage" alt="[​IMG]" data-url="https://static.qobuz.com/images/covers/eb/mr/kjiukj51zmreb_600.jpg" style=""><br>
Thanks
<div class="messageTextEndMarker">&nbsp;</div>
</blockquote>
</article>]]></description>
                <author><![CDATA[yoyon]]></author>
                </item>

                
                <item>
                <title><![CDATA[【Documentaries】WEB-DL - BTS Monuments: Beyond The Star | Episode 3 &amp; 4 - 720p DSNP WEB-DL DDP5.1 H.264 - liljaa]]></title>
                <link><![CDATA[https://sharemania.us/threads/bts-monuments-beyond-the-star-episode-3-4-720p-dsnp-web-dl-ddp5-1-h-264-liljaa.234758/]]></link>
                <description><![CDATA[<article>
<blockquote class="messageText SelectQuoteContainer ugc baseHtml">
<div class="bbCodeBlock bbCodeQuote">
<aside>
<blockquote class="quoteContainer"><div class="quote"><i>BTS mark its 10th anniversary as 21st-century pop icons. Join their journey to the top and beyond.</i></div><div class="quoteExpand">Click to expand...</div></blockquote>
</aside>
</div><b>Episode 3/8 – Pursuit of Happiness</b><br>
<img src="https://images2.imgbox.com/34/0e/3SCyrqSI_o.jpg" class="bbCodeImage LbImage" alt="[​IMG]" data-url="https://images2.imgbox.com/34/0e/3SCyrqSI_o.jpg" style=""><br>
<br>
<div class="ToggleTriggerAnchor bbCodeSpoilerContainer">
<button type="button" class="button bbCodeSpoilerButton ToggleTrigger Tooltip JsOnly" data-target="> .SpoilerTarget"><span>Spoiler: <span class="SpoilerTitle">MediaInfo</span></span></button>
<div class="SpoilerTarget bbCodeSpoilerText">MediaInfo<br>
<div class="bbCodeBlock bbCodeCode">
<div class="type">Code:</div>
<pre>General
Complete name                            : 03. BTS Monuments Beyond The Star Episode 3 – Pursuit of Happiness.mp4
Format                                   : MPEG-4
Format profile                           : Base Media
Codec ID                                 : isom (isom/dby1/iso2/avc1/mp41)
File size                                : 846 MiB
Duration                                 : 30 min 55 s
Overall bit rate mode                    : Variable
Overall bit rate                         : 3 826 kb/s
Frame rate                               : 23.976 FPS
Movie name                               : BTS Monuments Beyond The Star Episode 3 – Pursuit of Happiness
Performer                                : BTS
Description                              : BTS members help each other through growing pains and learn the meaning of the stage and themselves.
Recorded date                            : 2023
Writing application                      : Lavf60.3.100
Cover                                    : Yes
Comment                                  : Download by liljaa

Video
ID                                       : 1
Format                                   : AVC
Format/Info                              : Advanced Video Codec
Format profile                           : High@L3.1
Format settings                          : CABAC / 4 Ref Frames
Format settings, CABAC                   : Yes
Format settings, Reference frames        : 4 frames
Codec ID                                 : avc1
Codec ID/Info                            : Advanced Video Coding
Duration                                 : 30 min 55 s
Bit rate mode                            : Variable
Bit rate                                 : 3 560 kb/s
Maximum bit rate                         : 6 375 kb/s
Width                                    : 1 280 pixels
Height                                   : 720 pixels
Display aspect ratio                     : 16:9
Frame rate mode                          : Constant
Frame rate                               : 23.976 (24000/1001) FPS
Color space                              : YUV
Chroma subsampling                       : 4:2:0
Bit depth                                : 8 bits
Scan type                                : Progressive
Bits/(Pixel*Frame)                       : 0.161
Time code of first frame                 : 00:00:00:0000000000
Stream size                              : 787 MiB (93%)
Title                                    : BAMTech video
Color range                              : Limited
Color primaries                          : BT.709
Transfer characteristics                 : BT.709
Matrix coefficients                      : BT.709
Codec configuration box                  : avcC

Audio
ID                                       : 3
Format                                   : E-AC-3
Format/Info                              : Enhanced AC-3
Commercial name                          : Dolby Digital Plus
Codec ID                                 : ec-3
Duration                                 : 30 min 55 s
Bit rate mode                            : Constant
Bit rate                                 : 256 kb/s
Channel(s)                               : 6 channels
Channel layout                           : L R C LFE Ls Rs
Sampling rate                            : 48.0 kHz
Frame rate                               : 31.250 FPS (1536 SPF)
Compression mode                         : Lossy
Stream size                              : 56.6 MiB (7%)
Title                                    : BAMTech audio / Korean
Language                                 : Korean
Service kind                             : Complete Main
Default                                  : Yes
Alternate group                          : 1

Text #1
ID                                       : 4
Format                                   : Timed Text
Muxing mode                              : sbtl
Codec ID                                 : tx3g
Duration                                 : 30 min 54 s
Bit rate mode                            : Variable
Bit rate                                 : 85 b/s
Frame rate                               : 0.548 FPS
Stream size                              : 19.2 KiB (0%)
Title                                    : Chinese (Traditional)
Language                                 : Chinese
Default                                  : No
Forced                                   : No
Alternate group                          : 3
Count of events                          : 508

Text #2
ID                                       : 5
Format                                   : Timed Text
Muxing mode                              : sbtl
Codec ID                                 : tx3g
Duration                                 : 30 min 54 s
Bit rate mode                            : Variable
Bit rate                                 : 86 b/s
Frame rate                               : 0.543 FPS
Stream size                              : 19.5 KiB (0%)
Title                                    : Dansk
Language                                 : Danish
Default                                  : No
Forced                                   : No
Alternate group                          : 3
Count of events                          : 503

Text #3
ID                                       : 6
Format                                   : Timed Text
Muxing mode                              : sbtl
Codec ID                                 : tx3g
Duration                                 : 30 min 54 s
Bit rate mode                            : Variable
Bit rate                                 : 90 b/s
Frame rate                               : 0.546 FPS
Stream size                              : 20.4 KiB (0%)
Title                                    : Deutsch
Language                                 : German
Default                                  : No
Forced                                   : No
Alternate group                          : 3
Count of events                          : 506

Text #4
ID                                       : 7
Format                                   : Timed Text
Muxing mode                              : sbtl
Codec ID                                 : tx3g
Duration                                 : 30 min 54 s
Bit rate mode                            : Variable
Bit rate                                 : 104 b/s
Frame rate                               : 0.602 FPS
Stream size                              : 23.5 KiB (0%)
Title                                    : English [CC]
Language                                 : English
Default                                  : No
Forced                                   : No
Alternate group                          : 3
Count of events                          : 558

Text #5
ID                                       : 8
Format                                   : Timed Text
Muxing mode                              : sbtl
Codec ID                                 : tx3g
Duration                                 : 30 min 55 s
Bit rate mode                            : Variable
Bit rate                                 : 87 b/s
Frame rate                               : 0.544 FPS
Stream size                              : 19.8 KiB (0%)
Title                                    : Español
Language                                 : Spanish
Default                                  : No
Forced                                   : No
Alternate group                          : 3
Count of events                          : 504

Text #6
ID                                       : 9
Format                                   : Timed Text
Muxing mode                              : sbtl
Codec ID                                 : tx3g
Duration                                 : 30 min 53 s
Bit rate mode                            : Variable
Bit rate                                 : 89 b/s
Frame rate                               : 0.519 FPS
Stream size                              : 20.1 KiB (0%)
Title                                    : Español (Latinoamericano)
Language                                 : Spanish
Default                                  : No
Forced                                   : No
Alternate group                          : 3
Count of events                          : 481

Text #7
ID                                       : 10
Format                                   : Timed Text
Muxing mode                              : sbtl
Codec ID                                 : tx3g
Duration                                 : 30 min 55 s
Bit rate mode                            : Variable
Bit rate                                 : 95 b/s
Frame rate                               : 0.547 FPS
Stream size                              : 21.5 KiB (0%)
Title                                    : Français
Language                                 : French
Default                                  : No
Forced                                   : No
Alternate group                          : 3
Count of events                          : 507

Text #8
ID                                       : 11
Format                                   : Timed Text
Muxing mode                              : sbtl
Codec ID                                 : tx3g
Duration                                 : 30 min 55 s
Bit rate mode                            : Variable
Bit rate                                 : 146 b/s
Frame rate                               : 0.547 FPS
Stream size                              : 33.2 KiB (0%)
Title                                    : Greek
Language                                 : Greek
Default                                  : No
Forced                                   : No
Alternate group                          : 3
Count of events                          : 507

Text #9
ID                                       : 12
Format                                   : Timed Text
Muxing mode                              : sbtl
Codec ID                                 : tx3g
Duration                                 : 30 min 54 s
Bit rate mode                            : Variable
Bit rate                                 : 86 b/s
Frame rate                               : 0.547 FPS
Stream size                              : 19.4 KiB (0%)
Title                                    : Italiano
Language                                 : Italian
Default                                  : No
Forced                                   : No
Alternate group                          : 3
Count of events                          : 507

Text #10
ID                                       : 13
Format                                   : Timed Text
Muxing mode                              : sbtl
Codec ID                                 : tx3g
Duration                                 : 30 min 55 s
Bit rate mode                            : Variable
Bit rate                                 : 96 b/s
Frame rate                               : 0.492 FPS
Stream size                              : 21.7 KiB (0%)
Title                                    : Japanese
Language                                 : Japanese
Default                                  : No
Forced                                   : No
Alternate group                          : 3
Count of events                          : 462

Text #11
ID                                       : 14
Format                                   : Timed Text
Muxing mode                              : sbtl
Codec ID                                 : tx3g
Duration                                 : 30 min 54 s
Bit rate mode                            : Variable
Bit rate                                 : 8 b/s
Frame rate                               : 0.048 FPS
Stream size                              : 1.79 KiB (0%)
Title                                    : ko--forced--
Language                                 : Korean
Default                                  : No
Forced                                   : No
Alternate group                          : 3
Count of events                          : 44

Text #12
ID                                       : 15
Format                                   : Timed Text
Muxing mode                              : sbtl
Codec ID                                 : tx3g
Duration                                 : 30 min 54 s
Bit rate mode                            : Variable
Bit rate                                 : 118 b/s
Frame rate                               : 0.613 FPS
Stream size                              : 26.6 KiB (0%)
Title                                    : Korean [CC]
Language                                 : Korean
Default                                  : No
Forced                                   : No
Alternate group                          : 3
Count of events                          : 568

Text #13
ID                                       : 16
Format                                   : Timed Text
Muxing mode                              : sbtl
Codec ID                                 : tx3g
Duration                                 : 30 min 55 s
Bit rate mode                            : Variable
Bit rate                                 : 94 b/s
Frame rate                               : 0.544 FPS
Stream size                              : 21.2 KiB (0%)
Title                                    : Magyar
Language                                 : Hungarian
Default                                  : No
Forced                                   : No
Alternate group                          : 3
Count of events                          : 504

Text #14
ID                                       : 17
Format                                   : Timed Text
Muxing mode                              : sbtl
Codec ID                                 : tx3g
Duration                                 : 30 min 55 s
Bit rate mode                            : Variable
Bit rate                                 : 91 b/s
Frame rate                               : 0.548 FPS
Stream size                              : 20.7 KiB (0%)
Title                                    : Nederlands
Language                                 : Dutch
Default                                  : No
Forced                                   : No
Alternate group                          : 3
Count of events                          : 508

Text #15
ID                                       : 18
Format                                   : Timed Text
Muxing mode                              : sbtl
Codec ID                                 : tx3g
Duration                                 : 30 min 55 s
Bit rate mode                            : Variable
Bit rate                                 : 85 b/s
Frame rate                               : 0.538 FPS
Stream size                              : 19.2 KiB (0%)
Title                                    : Norsk
Language                                 : Norwegian
Default                                  : No
Forced                                   : No
Alternate group                          : 3
Count of events                          : 499

Text #16
ID                                       : 19
Format                                   : Timed Text
Muxing mode                              : sbtl
Codec ID                                 : tx3g
Duration                                 : 30 min 55 s
Bit rate mode                            : Variable
Bit rate                                 : 84 b/s
Frame rate                               : 0.541 FPS
Stream size                              : 19.1 KiB (0%)
Title                                    : Polski
Language                                 : Polish
Default                                  : No
Forced                                   : No
Alternate group                          : 3
Count of events                          : 501

Text #17
ID                                       : 20
Format                                   : Timed Text
Muxing mode                              : sbtl
Codec ID                                 : tx3g
Duration                                 : 30 min 55 s
Bit rate mode                            : Variable
Bit rate                                 : 85 b/s
Frame rate                               : 0.542 FPS
Stream size                              : 19.4 KiB (0%)
Title                                    : Português
Language                                 : Portuguese
Default                                  : No
Forced                                   : No
Alternate group                          : 3
Count of events                          : 502

Text #18
ID                                       : 21
Format                                   : Timed Text
Muxing mode                              : sbtl
Codec ID                                 : tx3g
Duration                                 : 30 min 55 s
Bit rate mode                            : Variable
Bit rate                                 : 85 b/s
Frame rate                               : 0.545 FPS
Stream size                              : 19.2 KiB (0%)
Title                                    : Português (Brasil)
Language                                 : Portuguese
Default                                  : No
Forced                                   : No
Alternate group                          : 3
Count of events                          : 505

Text #19
ID                                       : 22
Format                                   : Timed Text
Muxing mode                              : sbtl
Codec ID                                 : tx3g
Duration                                 : 30 min 55 s
Bit rate mode                            : Variable
Bit rate                                 : 94 b/s
Frame rate                               : 0.545 FPS
Stream size                              : 21.4 KiB (0%)
Title                                    : Română
Language                                 : Romanian
Default                                  : No
Forced                                   : No
Alternate group                          : 3
Count of events                          : 505

Text #20
ID                                       : 23
Format                                   : Timed Text
Muxing mode                              : sbtl
Codec ID                                 : tx3g
Duration                                 : 30 min 55 s
Bit rate mode                            : Variable
Bit rate                                 : 95 b/s
Frame rate                               : 0.542 FPS
Stream size                              : 21.6 KiB (0%)
Title                                    : Slovenčina
Language                                 : Slovak
Default                                  : No
Forced                                   : No
Alternate group                          : 3
Count of events                          : 502

Text #21
ID                                       : 24
Format                                   : Timed Text
Muxing mode                              : sbtl
Codec ID                                 : tx3g
Duration                                 : 30 min 54 s
Bit rate mode                            : Variable
Bit rate                                 : 87 b/s
Frame rate                               : 0.545 FPS
Stream size                              : 19.7 KiB (0%)
Title                                    : Suomi
Language                                 : Finnish
Default                                  : No
Forced                                   : No
Alternate group                          : 3
Count of events                          : 505

Text #22
ID                                       : 25
Format                                   : Timed Text
Muxing mode                              : sbtl
Codec ID                                 : tx3g
Duration                                 : 30 min 55 s
Bit rate mode                            : Variable
Bit rate                                 : 83 b/s
Frame rate                               : 0.547 FPS
Stream size                              : 18.8 KiB (0%)
Title                                    : Svenska
Language                                 : Swedish
Default                                  : Yes
Forced                                   : No
Alternate group                          : 3
Count of events                          : 507

Text #23
ID                                       : 26
Format                                   : Timed Text
Muxing mode                              : sbtl
Codec ID                                 : tx3g
Duration                                 : 30 min 55 s
Bit rate mode                            : Variable
Bit rate                                 : 92 b/s
Frame rate                               : 0.545 FPS
Stream size                              : 20.8 KiB (0%)
Title                                    : Türkçe
Language                                 : Turkish
Default                                  : No
Forced                                   : No
Alternate group                          : 3
Count of events                          : 505

Text #24
ID                                       : 27
Format                                   : Timed Text
Muxing mode                              : sbtl
Codec ID                                 : tx3g
Duration                                 : 30 min 55 s
Bit rate mode                            : Variable
Bit rate                                 : 87 b/s
Frame rate                               : 0.547 FPS
Stream size                              : 19.7 KiB (0%)
Title                                    : Čeština
Language                                 : Czech
Default                                  : No
Forced                                   : No
Alternate group                          : 3
Count of events                          : 507
</pre>
</div></div>
</div><br>
<b>Episode 4/8 – Disconnected</b><br>
<img src="https://images2.imgbox.com/a3/4a/jpQLqoEX_o.jpg" class="bbCodeImage LbImage" alt="[​IMG]" data-url="https://images2.imgbox.com/a3/4a/jpQLqoEX_o.jpg" style=""><br>
<br>
<div class="ToggleTriggerAnchor bbCodeSpoilerContainer">
<button type="button" class="button bbCodeSpoilerButton ToggleTrigger Tooltip JsOnly" data-target="> .SpoilerTarget"><span>Spoiler: <span class="SpoilerTitle">MediaInfo</span></span></button>
<div class="SpoilerTarget bbCodeSpoilerText">MediaInfo<br>
<div class="bbCodeBlock bbCodeCode">
<div class="type">Code:</div>
<pre>General
Complete name                            : 04. BTS Monuments Beyond The Star Episode 4 – Disconnected.mp4
Format                                   : MPEG-4
Format profile                           : Base Media
Codec ID                                 : isom (isom/dby1/iso2/avc1/mp41)
File size                                : 873 MiB
Duration                                 : 33 min 26 s
Overall bit rate mode                    : Variable
Overall bit rate                         : 3 651 kb/s
Frame rate                               : 23.976 FPS
Collection                               : BTS Monuments: Beyond The Star
Season                                   : 1
Track name                               : BTS Monuments Beyond The Star Episode 4 – Disconnected
Performer                                : BTS
Description                              : An unprecedented pandemic halts performing, which is an artist's core. How will they pull through?
Recorded date                            : 2023
Writing application                      : Lavf60.3.100
Cover                                    : Yes
Comment                                  : Download by liljaa
Part_ID                                  : 4

Video
ID                                       : 1
Format                                   : AVC
Format/Info                              : Advanced Video Codec
Format profile                           : High@L3.1
Format settings                          : CABAC / 4 Ref Frames
Format settings, CABAC                   : Yes
Format settings, Reference frames        : 4 frames
Codec ID                                 : avc1
Codec ID/Info                            : Advanced Video Coding
Duration                                 : 33 min 26 s
Bit rate mode                            : Variable
Bit rate                                 : 3 385 kb/s
Maximum bit rate                         : 6 375 kb/s
Width                                    : 1 280 pixels
Height                                   : 720 pixels
Display aspect ratio                     : 16:9
Frame rate mode                          : Constant
Frame rate                               : 23.976 (24000/1001) FPS
Color space                              : YUV
Chroma subsampling                       : 4:2:0
Bit depth                                : 8 bits
Scan type                                : Progressive
Bits/(Pixel*Frame)                       : 0.153
Time code of first frame                 : 00:00:00:0000000000
Stream size                              : 810 MiB (93%)
Title                                    : BAMTech video
Color range                              : Limited
Color primaries                          : BT.709
Transfer characteristics                 : BT.709
Matrix coefficients                      : BT.709
Codec configuration box                  : avcC

Audio
ID                                       : 3
Format                                   : E-AC-3
Format/Info                              : Enhanced AC-3
Commercial name                          : Dolby Digital Plus
Codec ID                                 : ec-3
Duration                                 : 33 min 26 s
Bit rate mode                            : Constant
Bit rate                                 : 256 kb/s
Channel(s)                               : 6 channels
Channel layout                           : L R C LFE Ls Rs
Sampling rate                            : 48.0 kHz
Frame rate                               : 31.250 FPS (1536 SPF)
Compression mode                         : Lossy
Stream size                              : 61.2 MiB (7%)
Title                                    : BAMTech audio / Korean
Language                                 : Korean
Service kind                             : Complete Main
Default                                  : Yes
Alternate group                          : 1

Text #1
ID                                       : 4
Format                                   : Timed Text
Muxing mode                              : sbtl
Codec ID                                 : tx3g
Duration                                 : 33 min 26 s
Bit rate mode                            : Variable
Bit rate                                 : 104 b/s
Frame rate                               : 0.638 FPS
Stream size                              : 25.4 KiB (0%)
Title                                    : Chinese (Traditional)
Language                                 : Chinese
Default                                  : No
Forced                                   : No
Alternate group                          : 3
Count of events                          : 640

Text #2
ID                                       : 5
Format                                   : Timed Text
Muxing mode                              : sbtl
Codec ID                                 : tx3g
Duration                                 : 33 min 26 s
Bit rate mode                            : Variable
Bit rate                                 : 107 b/s
Frame rate                               : 0.632 FPS
Stream size                              : 26.3 KiB (0%)
Title                                    : Dansk
Language                                 : Danish
Default                                  : No
Forced                                   : No
Alternate group                          : 3
Count of events                          : 634

Text #3
ID                                       : 6
Format                                   : Timed Text
Muxing mode                              : sbtl
Codec ID                                 : tx3g
Duration                                 : 33 min 26 s
Bit rate mode                            : Variable
Bit rate                                 : 110 b/s
Frame rate                               : 0.633 FPS
Stream size                              : 26.8 KiB (0%)
Title                                    : Deutsch
Language                                 : German
Default                                  : No
Forced                                   : No
Alternate group                          : 3
Count of events                          : 635

Text #4
ID                                       : 7
Format                                   : Timed Text
Muxing mode                              : sbtl
Codec ID                                 : tx3g
Duration                                 : 33 min 26 s
Bit rate mode                            : Variable
Bit rate                                 : 128 b/s
Frame rate                               : 0.702 FPS
Stream size                              : 31.4 KiB (0%)
Title                                    : English [CC]
Language                                 : English
Default                                  : No
Forced                                   : No
Alternate group                          : 3
Count of events                          : 704

Text #5
ID                                       : 8
Format                                   : Timed Text
Muxing mode                              : sbtl
Codec ID                                 : tx3g
Duration                                 : 33 min 26 s
Bit rate mode                            : Variable
Bit rate                                 : 104 b/s
Frame rate                               : 0.633 FPS
Stream size                              : 25.6 KiB (0%)
Title                                    : Español
Language                                 : Spanish
Default                                  : No
Forced                                   : No
Alternate group                          : 3
Count of events                          : 635

Text #6
ID                                       : 9
Format                                   : Timed Text
Muxing mode                              : sbtl
Codec ID                                 : tx3g
Duration                                 : 33 min 26 s
Bit rate mode                            : Variable
Bit rate                                 : 110 b/s
Frame rate                               : 0.623 FPS
Stream size                              : 27.0 KiB (0%)
Title                                    : Español (Latinoamericano)
Language                                 : Spanish
Default                                  : No
Forced                                   : No
Alternate group                          : 3
Count of events                          : 624

Text #7
ID                                       : 10
Format                                   : Timed Text
Muxing mode                              : sbtl
Codec ID                                 : tx3g
Duration                                 : 33 min 26 s
Bit rate mode                            : Variable
Bit rate                                 : 111 b/s
Frame rate                               : 0.632 FPS
Stream size                              : 27.2 KiB (0%)
Title                                    : Français
Language                                 : French
Default                                  : No
Forced                                   : No
Alternate group                          : 3
Count of events                          : 634

Text #8
ID                                       : 11
Format                                   : Timed Text
Muxing mode                              : sbtl
Codec ID                                 : tx3g
Duration                                 : 33 min 26 s
Bit rate mode                            : Variable
Bit rate                                 : 167 b/s
Frame rate                               : 0.635 FPS
Stream size                              : 40.9 KiB (0%)
Title                                    : Greek
Language                                 : Greek
Default                                  : No
Forced                                   : No
Alternate group                          : 3
Count of events                          : 637

Text #9
ID                                       : 12
Format                                   : Timed Text
Muxing mode                              : sbtl
Codec ID                                 : tx3g
Duration                                 : 33 min 26 s
Bit rate mode                            : Variable
Bit rate                                 : 104 b/s
Frame rate                               : 0.632 FPS
Stream size                              : 25.5 KiB (0%)
Title                                    : Italiano
Language                                 : Italian
Default                                  : No
Forced                                   : No
Alternate group                          : 3
Count of events                          : 634

Text #10
ID                                       : 13
Format                                   : Timed Text
Muxing mode                              : sbtl
Codec ID                                 : tx3g
Duration                                 : 33 min 26 s
Bit rate mode                            : Variable
Bit rate                                 : 108 b/s
Frame rate                               : 0.619 FPS
Stream size                              : 26.5 KiB (0%)
Title                                    : Japanese
Language                                 : Japanese
Default                                  : No
Forced                                   : No
Alternate group                          : 3
Count of events                          : 626

Text #11
ID                                       : 14
Format                                   : Timed Text
Muxing mode                              : sbtl
Codec ID                                 : tx3g
Duration                                 : 33 min 26 s
Bit rate mode                            : Variable
Bit rate                                 : 139 b/s
Frame rate                               : 0.717 FPS
Stream size                              : 34.1 KiB (0%)
Title                                    : Korean [CC]
Language                                 : Korean
Default                                  : No
Forced                                   : No
Alternate group                          : 3
Count of events                          : 719

Text #12
ID                                       : 15
Format                                   : Timed Text
Muxing mode                              : sbtl
Codec ID                                 : tx3g
Duration                                 : 33 min 26 s
Bit rate mode                            : Variable
Bit rate                                 : 113 b/s
Frame rate                               : 0.633 FPS
Stream size                              : 27.8 KiB (0%)
Title                                    : Magyar
Language                                 : Hungarian
Default                                  : No
Forced                                   : No
Alternate group                          : 3
Count of events                          : 635

Text #13
ID                                       : 16
Format                                   : Timed Text
Muxing mode                              : sbtl
Codec ID                                 : tx3g
Duration                                 : 33 min 26 s
Bit rate mode                            : Variable
Bit rate                                 : 110 b/s
Frame rate                               : 0.635 FPS
Stream size                              : 27.0 KiB (0%)
Title                                    : Nederlands
Language                                 : Dutch
Default                                  : No
Forced                                   : No
Alternate group                          : 3
Count of events                          : 637

Text #14
ID                                       : 17
Format                                   : Timed Text
Muxing mode                              : sbtl
Codec ID                                 : tx3g
Duration                                 : 33 min 26 s
Bit rate mode                            : Variable
Bit rate                                 : 106 b/s
Frame rate                               : 0.635 FPS
Stream size                              : 25.9 KiB (0%)
Title                                    : Norsk
Language                                 : Norwegian
Default                                  : No
Forced                                   : No
Alternate group                          : 3
Count of events                          : 637

Text #15
ID                                       : 18
Format                                   : Timed Text
Muxing mode                              : sbtl
Codec ID                                 : tx3g
Duration                                 : 33 min 26 s
Bit rate mode                            : Variable
Bit rate                                 : 101 b/s
Frame rate                               : 0.633 FPS
Stream size                              : 24.7 KiB (0%)
Title                                    : Polski
Language                                 : Polish
Default                                  : No
Forced                                   : No
Alternate group                          : 3
Count of events                          : 635

Text #16
ID                                       : 19
Format                                   : Timed Text
Muxing mode                              : sbtl
Codec ID                                 : tx3g
Duration                                 : 33 min 26 s
Bit rate mode                            : Variable
Bit rate                                 : 102 b/s
Frame rate                               : 0.633 FPS
Stream size                              : 25.0 KiB (0%)
Title                                    : Português
Language                                 : Portuguese
Default                                  : No
Forced                                   : No
Alternate group                          : 3
Count of events                          : 635

Text #17
ID                                       : 20
Format                                   : Timed Text
Muxing mode                              : sbtl
Codec ID                                 : tx3g
Duration                                 : 33 min 26 s
Bit rate mode                            : Variable
Bit rate                                 : 101 b/s
Frame rate                               : 0.632 FPS
Stream size                              : 24.8 KiB (0%)
Title                                    : Português (Brasil)
Language                                 : Portuguese
Default                                  : No
Forced                                   : No
Alternate group                          : 3
Count of events                          : 634

Text #18
ID                                       : 21
Format                                   : Timed Text
Muxing mode                              : sbtl
Codec ID                                 : tx3g
Duration                                 : 33 min 26 s
Bit rate mode                            : Variable
Bit rate                                 : 109 b/s
Frame rate                               : 0.633 FPS
Stream size                              : 26.8 KiB (0%)
Title                                    : Română
Language                                 : Romanian
Default                                  : No
Forced                                   : No
Alternate group                          : 3
Count of events                          : 635

Text #19
ID                                       : 22
Format                                   : Timed Text
Muxing mode                              : sbtl
Codec ID                                 : tx3g
Duration                                 : 33 min 26 s
Bit rate mode                            : Variable
Bit rate                                 : 116 b/s
Frame rate                               : 0.633 FPS
Stream size                              : 28.5 KiB (0%)
Title                                    : Slovenčina
Language                                 : Slovak
Default                                  : No
Forced                                   : No
Alternate group                          : 3
Count of events                          : 635

Text #20
ID                                       : 23
Format                                   : Timed Text
Muxing mode                              : sbtl
Codec ID                                 : tx3g
Duration                                 : 33 min 26 s
Bit rate mode                            : Variable
Bit rate                                 : 106 b/s
Frame rate                               : 0.633 FPS
Stream size                              : 26.0 KiB (0%)
Title                                    : Suomi
Language                                 : Finnish
Default                                  : No
Forced                                   : No
Alternate group                          : 3
Count of events                          : 635

Text #21
ID                                       : 24
Format                                   : Timed Text
Muxing mode                              : sbtl
Codec ID                                 : tx3g
Duration                                 : 33 min 26 s
Bit rate mode                            : Variable
Bit rate                                 : 103 b/s
Frame rate                               : 0.630 FPS
Stream size                              : 25.3 KiB (0%)
Title                                    : Svenska
Language                                 : Swedish
Default                                  : Yes
Forced                                   : No
Alternate group                          : 3
Count of events                          : 631

Text #22
ID                                       : 25
Format                                   : Timed Text
Muxing mode                              : sbtl
Codec ID                                 : tx3g
Duration                                 : 33 min 26 s
Bit rate mode                            : Variable
Bit rate                                 : 111 b/s
Frame rate                               : 0.633 FPS
Stream size                              : 27.2 KiB (0%)
Title                                    : Türkçe
Language                                 : Turkish
Default                                  : No
Forced                                   : No
Alternate group                          : 3
Count of events                          : 635

Text #23
ID                                       : 26
Format                                   : Timed Text
Muxing mode                              : sbtl
Codec ID                                 : tx3g
Duration                                 : 33 min 26 s
Bit rate mode                            : Variable
Bit rate                                 : 106 b/s
Frame rate                               : 0.633 FPS
Stream size                              : 25.9 KiB (0%)
Title                                    : Čeština
Language                                 : Czech
Default                                  : No
Forced                                   : No
Alternate group                          : 3
Count of events                          : 635
</pre>
</div></div>
</div><br>
<a href="https://sharemania.us/threads/bts-monuments-beyond-the-star-episode-1-2-720p-dsnp-web-dl-ddp5-1-h-264-liljaa.234312/" class="internalLink">Episode 1 &amp; 2</a><br>
<br>
<div class="bbCodeBlock bbCodeVfcHH HiddenContent">
<div class="attribution type">Hidden Content:</div>
<blockquote>You must either reply or click 'Like' to see the hidden information contained here.</blockquote>
</div>
<div class="messageTextEndMarker">&nbsp;</div>
</blockquote>
</article>]]></description>
                <author><![CDATA[Liljaa]]></author>
                </item>

                
                <item>
                <title><![CDATA[【Apple Music】WEB-RiP - Doja Cat - Paint The Town Red (Apple Music HEVC 4K 2160p)]]></title>
                <link><![CDATA[https://sharemania.us/threads/doja-cat-paint-the-town-red-apple-music-hevc-4k-2160p.234756/]]></link>
                <description><![CDATA[<article>
<blockquote class="messageText SelectQuoteContainer ugc baseHtml">
<div style="text-align: center"> <img src="https://i.ibb.co/HNZV3TM/Doja-Cat-Paint-The-Town-Red-Apple-Music-HEVC-4-K-2160p-m4v.png" class="bbCodeImage LbImage" alt="[​IMG]" data-url="https://i.ibb.co/HNZV3TM/Doja-Cat-Paint-The-Town-Red-Apple-Music-HEVC-4-K-2160p-m4v.png" style=""><br>
<br>
<span style="font-family: 'Abril Fatface'">Artist:</span> Doja Cat<br>
<span style="font-family: 'Abril Fatface'">Title:</span> Paint The Town Red<br>
<span style="font-family: 'Abril Fatface'">Format:</span> .m4v<br>
<span style="font-family: 'Abril Fatface'">Codec:</span> H.265/HEVC<br>
<span style="font-family: 'Abril Fatface'">Ripped by:</span> <a href="https://sharemania.us/members/164517/" class="username" data-user="164517, @stargamer">@stargamer</a><br>
<br>
<span style="font-family: 'Abril Fatface'">Download:</span><br>
<div class="bbCodeBlock bbCodeVfcHH HiddenContent">
<div class="attribution type">Hidden Content:</div>
<blockquote>You must either reply or click 'Like' to see the hidden information contained here.</blockquote>
</div> </div>
<div class="messageTextEndMarker">&nbsp;</div>
</blockquote>
</article>]]></description>
                <author><![CDATA[stargamer]]></author>
                </item>

                </channel></rss>